<?xml version="1.0" standalone="no"?>
<!DOCTYPE svg PUBLIC "-//W3C//DTD SVG 20010904//EN"
 "http://www.w3.org/TR/2001/REC-SVG-20010904/DTD/svg10.dtd">
<svg version="1.0" xmlns="http://www.w3.org/2000/svg"
 width="50pt" height="50pt" viewBox="0 0 1600.000000 967.000000"
 preserveAspectRatio="xMidYMid meet">

<g transform="translate(0.000000,967.000000) scale(0.100000,-0.100000)"
fill="#000000" stroke="none">
<path d="M0 4835 l0 -4835 8000 0 8000 0 0 4835 0 4835 -8000 0 -8000 0 0
-4835z m5306 4155 c767 -60 1483 -331 2089 -789 188 -142 416 -353 429 -398
11 -34 -17 -88 -53 -102 -48 -21 -77 -6 -175 87 -270 259 -579 474 -931 646
-398 195 -804 313 -1255 363 -195 22 -613 21 -805 -1 -730 -85 -1387 -357
-1955 -811 -110 -87 -402 -367 -486 -465 -410 -480 -681 -1008 -825 -1610 -31
-126 -75 -394 -81 -484 -3 -47 -2 -50 26 -57 15 -4 37 -16 47 -25 19 -17 19
-66 19 -1954 0 -1745 2 -1942 16 -1990 64 -214 348 -412 775 -539 171 -50 382
-89 664 -123 75 -9 1462 -13 5632 -17 l5532 -6 28 -21 c40 -30 37 -64 -7 -86
-33 -16 -366 -17 -5550 -17 -4749 -1 -5538 1 -5680 14 -360 31 -679 95 -935
187 -60 22 -123 45 -140 50 -54 20 -255 126 -327 174 -39 26 -106 82 -150 125
-43 43 -87 81 -97 84 -32 10 -45 34 -53 99 -4 33 -12 81 -17 106 -7 29 -10
736 -11 1966 0 1849 1 1922 18 1945 13 17 22 57 31 139 68 650 310 1289 694
1836 154 219 220 297 447 525 231 233 483 432 755 595 541 324 1145 513 1785
557 111 8 429 6 546 -3z m5 -790 c538 -44 1126 -262 1573 -583 382 -275 711
-638 928 -1022 217 -383 331 -719 406 -1190 14 -88 16 -333 19 -2118 l4 -2017
-25 -25 c-36 -36 -98 -35 -131 1 l-25 27 0 1922 c0 2028 -1 2053 -45 2311
-135 771 -566 1466 -1197 1932 -435 320 -943 518 -1485 577 -248 27 -606 16
-824 -25 -35 -7 -65 -7 -80 -1 -65 24 -84 101 -37 147 21 22 44 28 151 45 239
36 474 42 768 19z m1674 -1535 c273 -71 496 -396 629 -915 89 -350 134 -831
122 -1315 -3 -143 -9 -295 -12 -337 l-7 -77 -46 -7 c-218 -30 -387 -68 -814
-184 l-307 -84 6 -35 c13 -70 57 -197 91 -263 89 -170 212 -239 343 -193 70
25 177 103 280 204 92 91 196 206 213 237 4 8 13 14 19 14 12 0 11 -40 -28
-725 -42 -760 -40 -744 -68 -786 -76 -114 -255 -246 -395 -289 -260 -81 -483
-31 -675 151 -246 232 -413 615 -515 1179 -174 961 -55 2167 280 2847 168 339
369 531 614 586 49 11 215 6 270 -8z m-3368 -75 c112 -27 193 -62 289 -126
374 -248 625 -787 708 -1524 35 -303 40 -756 11 -995 -3 -22 -12 -98 -20 -170
-34 -274 -119 -619 -202 -820 -14 -33 -52 -117 -86 -187 l-60 -127 53 -118
c29 -65 67 -149 85 -188 17 -38 46 -104 64 -146 l33 -76 -43 -55 c-59 -74
-149 -184 -294 -358 -66 -80 -158 -191 -204 -248 -45 -57 -88 -101 -94 -99 -6
2 -43 168 -82 370 -39 202 -73 369 -76 371 -3 3 -38 -4 -79 -14 -104 -27 -260
-27 -359 0 -497 138 -879 799 -998 1725 -28 218 -25 789 5 1016 103 777 355
1348 722 1633 95 74 204 127 295 146 79 16 246 11 332 -10z m2048 -197 c-3
-87 -12 -421 -20 -743 -28 -1084 -34 -1334 -40 -1470 -3 -74 -10 -322 -15
-550 -21 -879 -41 -1515 -48 -1522 -7 -7 -723 -80 -729 -74 -3 3 -9 342 -59
3454 -8 529 -13 966 -10 970 3 5 24 9 48 11 24 1 207 20 408 40 201 21 389 39
418 40 l54 1 -7 -157z m-3570 -348 c31 -30 32 -70 5 -156 -48 -149 -85 -315
-117 -529 -16 -105 -17 -288 -23 -2108 l-5 -1994 -24 -19 c-34 -28 -96 -25
-127 6 l-25 25 4 2012 c3 2206 -1 2052 62 2358 26 126 88 348 108 385 27 51
101 62 142 20z m6824 -860 c16 -8 31 -22 35 -30 3 -9 6 -213 6 -453 0 -434 0
-436 -22 -459 -44 -46 -138 -22 -153 40 -3 12 -4 213 -3 445 l3 424 28 24 c32
27 66 30 106 9z m15 -1616 c24 -19 26 -26 26 -100 0 -93 -9 -115 -55 -135 -74
-31 -125 21 -125 128 0 61 14 99 44 120 22 15 83 8 110 -13z m1 -894 l25 -24
0 -695 0 -695 -26 -20 c-38 -30 -94 -28 -125 5 l-24 26 -3 683 -2 683 26 31
c34 41 92 44 129 6z m1179 -70 c148 -31 262 -109 313 -214 25 -49 28 -67 28
-151 0 -78 -4 -102 -22 -135 -27 -51 -67 -92 -116 -117 l-39 -19 51 -25 c65
-33 117 -86 150 -154 22 -46 26 -69 26 -140 0 -76 -3 -91 -31 -140 -86 -155
-363 -229 -709 -190 -89 10 -248 52 -272 72 -10 8 -13 136 -13 579 l0 568 88
27 c48 15 119 32 157 39 97 18 305 18 389 0z m3470 -20 c75 -18 126 -40 126
-55 0 -30 -31 -345 -34 -348 -3 -2 -44 6 -92 18 -113 29 -280 26 -313 -4 -27
-24 -27 -52 0 -66 12 -7 65 -11 123 -11 62 1 125 -5 160 -14 131 -34 213 -140
223 -286 11 -148 -34 -276 -123 -359 -106 -99 -208 -134 -389 -135 -109 0
-129 3 -217 32 -82 27 -198 78 -198 86 4 53 39 330 43 333 3 3 36 -6 74 -22
164 -66 379 -74 398 -15 16 50 -26 71 -165 82 -58 4 -121 13 -140 20 -53 19
-113 63 -143 106 -51 74 -61 111 -62 219 0 96 2 104 38 176 66 135 198 229
367 262 49 9 256 -3 324 -19z m1113 -315 c52 -179 127 -441 169 -584 41 -142
73 -264 71 -270 -4 -10 -296 -51 -416 -59 -22 -2 -26 5 -47 88 -13 50 -23 94
-24 98 0 4 -44 6 -97 5 l-98 -3 -20 -92 c-11 -51 -25 -95 -30 -97 -6 -2 -99 4
-206 15 -106 10 -204 18 -216 19 -14 0 -23 6 -23 15 0 8 31 120 69 248 166
560 261 876 270 900 10 26 14 27 83 28 40 1 125 5 188 9 63 4 142 7 175 6 l59
-1 93 -325z m-1871 173 c-4 -82 -9 -157 -12 -169 -5 -20 -14 -22 -187 -30
l-182 -9 -3 -47 -3 -48 156 0 c128 0 157 -3 161 -15 3 -8 2 -72 -2 -142 l-9
-128 -130 -6 c-71 -4 -140 -7 -152 -8 l-23 -1 0 -238 0 -239 -122 -6 c-178
-10 -326 -9 -330 3 -1 5 2 234 9 507 6 274 12 549 12 611 l1 112 411 0 412 0
-7 -147z m-1836 -55 c34 -95 66 -176 70 -181 3 -4 37 70 75 165 37 95 71 177
75 181 7 8 417 -16 426 -26 5 -5 -13 -44 -26 -57 -7 -7 -60 -92 -163 -265 -50
-82 -119 -196 -154 -253 l-65 -102 7 -250 8 -250 -233 0 -233 0 7 248 6 248
-140 283 c-153 308 -173 351 -174 366 -1 8 351 60 430 64 17 1 29 -23 84 -171z"/>
<path d="M6795 5286 c-74 -32 -144 -158 -195 -349 -31 -118 -65 -315 -56 -324
3 -3 116 14 252 38 l247 43 -6 116 c-16 274 -69 441 -152 476 -41 17 -51 17
-90 0z"/>
<path d="M3367 5058 c-20 -6 -59 -30 -87 -55 -145 -131 -218 -389 -207 -738 6
-172 21 -282 59 -410 45 -153 122 -276 198 -315 48 -24 138 -27 181 -4 160 82
263 338 276 685 13 354 -58 641 -192 775 -70 70 -133 87 -228 62z"/>
<path d="M9912 2232 c-8 -6 -15 -42 -19 -100 -6 -91 -6 -92 17 -92 42 0 101
23 121 48 27 35 25 93 -5 121 -26 24 -92 38 -114 23z"/>
<path d="M9903 1853 c-9 -3 -13 -33 -13 -99 l0 -94 49 0 c70 0 111 35 111 94
0 23 -7 51 -15 63 -21 30 -96 51 -132 36z"/>
<path d="M14347 2070 c-25 -110 -47 -214 -47 -226 0 -10 14 -14 55 -14 l56 0
-7 37 c-4 21 -17 80 -29 133 -17 70 -24 88 -28 70z"/>
</g>
</svg>
